<?xml version="1.0" encoding="utf-8"?>
<!-- Generator: Adobe Illustrator 18.0.0, SVG Export Plug-In . SVG Version: 6.00 Build 0)  -->
<!DOCTYPE svg PUBLIC "-//W3C//DTD SVG 1.1//EN" "http://www.w3.org/Graphics/SVG/1.1/DTD/svg11.dtd">
<svg version="1.1" id="Layer_1" xmlns="http://www.w3.org/2000/svg" xmlns:xlink="http://www.w3.org/1999/xlink" x="0px" y="0px"
	 viewBox="0 263.9 1280 184" enable-background="new 0 263.9 1280 184" xml:space="preserve">
<g>
	<g>
		<g>
			<path fill="#FFFFFF" d="M315,396.5c-8.9,8.4-19.9,13.1-32,13.1s-22.5-3.7-30.4-11.5c-7.9-7.3-12.1-17.8-12.1-30.4
				s4.2-22.5,12.1-30.4c8.4-7.3,17.8-11,28.8-11s20.4,3.1,28.3,10c7.9,6.8,11.5,15.7,11.5,27.8v12.1h-58.2c0.5,4.2,3.1,7.9,6.8,11
				c3.7,2.6,8.4,4.2,13.1,4.2c7.9,0,14.2-2.6,19.4-7.9L315,396.5z M293.5,348.8c-3.1-2.6-6.8-3.7-11.5-3.7c-4.2,0-8.4,1.6-12.1,4.2
				c-3.7,2.6-5.8,6.3-6.3,11h35.1C298.2,355.1,296.7,351.4,293.5,348.8z"/>
			<path fill="#FFFFFF" d="M376.3,389.2c7.3,0,14.2-3.7,20.4-11l13.1,15.2c-10.5,11-21.5,16.2-33.5,16.2c-12.1,0-22.5-3.7-30.4-11.5
				c-8.4-7.9-12.6-17.8-12.6-29.9s4.2-22.5,12.6-29.9c8.4-7.9,18.3-11.5,29.9-11.5c5.8,0,11.5,1,17.8,3.7c5.8,2.6,11,5.8,15.7,10.5
				l-11.5,15.2c-2.6-3.1-5.8-5.2-9.4-7.3c-3.7-1.6-7.3-2.6-11-2.6c-5.8,0-11,2.1-15.2,5.8s-6.3,9.4-6.3,16.2
				c0,6.8,2.1,12.1,6.3,15.7C365.9,387.6,370.6,389.2,376.3,389.2z"/>
			<path fill="#FFFFFF" d="M504.2,367.7c0,11.5-4.2,21.5-12.1,29.4c-7.9,7.9-18.3,12.1-30.4,12.1c-12.1,0-22.5-4.2-30.4-12.1
				c-7.9-7.9-12.1-17.8-12.1-29.4c0-11.5,4.2-21.5,12.1-29.4c7.9-7.9,18.3-12.1,30.4-12.1c12.1,0,22.5,4.2,30.4,12.1
				S504.2,356.2,504.2,367.7z M441.3,367.7c0,6.8,2.1,12.1,5.8,16.2c3.7,4.2,8.4,6.3,14.2,6.3c5.8,0,10.5-2.1,14.2-6.3
				c3.7-4.2,5.8-9.4,5.8-16.2s-2.1-12.1-5.8-16.2c-3.7-4.2-8.4-6.3-14.2-6.3c-5.8,0-10.5,2.1-14.2,6.3
				C443.4,355.6,441.3,361.4,441.3,367.7z"/>
			<path fill="#FFFFFF" d="M553,409.1c-9.4,0-17.8-4.2-25.7-12.1c-7.3-7.9-11-18.3-11-29.9c0-11.5,3.7-22,11-29.4
				c7.3-7.9,15.7-11.5,25.7-11.5c10,0,17.8,3.7,24.1,10.5v-39.8h22.5v111.1h-23.1v-10.5C570.3,405.4,562.4,409.1,553,409.1z
				 M538.8,367.7c0,6.3,2.1,12.1,5.8,15.7c3.7,4.2,8.4,6.3,13.6,6.3c5.2,0,9.4-2.1,13.1-6.3c3.7-4.2,5.2-9.4,5.2-16.2
				c0-6.8-1.6-12.1-5.2-16.2c-3.7-4.2-7.9-6.3-13.6-6.3c-5.2,0-10,2.1-13.6,6.8C540.9,356.2,538.8,361.4,538.8,367.7z"/>
			<path fill="#FFFFFF" d="M690.3,396.5c-8.9,8.4-19.9,13.1-32,13.1c-12.1,0-22.5-3.7-30.4-11.5c-7.9-7.3-12.1-17.8-12.1-30.4
				s4.2-22.5,12.1-30.4c8.4-7.3,17.8-11,28.8-11c11,0,20.4,3.1,28.3,10c7.9,6.8,11.5,15.7,11.5,27.8v12.1h-58.7
				c0.5,4.2,3.1,7.9,6.8,11c3.7,2.6,8.4,4.2,13.1,4.2c7.9,0,14.2-2.6,19.4-7.9L690.3,396.5z M668.8,348.8c-3.1-2.6-6.8-3.7-11.5-3.7
				c-4.2,0-8.4,1.6-12.1,4.2c-3.7,2.6-5.8,6.3-6.3,11h35.1C673.5,355.1,672,351.4,668.8,348.8z"/>
		</g>
		<g>
			<polygon fill="#FFFFFF" points="188.7,356.2 172.4,303.2 147.8,303.2 129.5,363.5 109,303.2 83.3,303.2 120,408.1 137.3,408.1 
				160.4,335.2 177.2,389.2 			"/>
		</g>
	</g>
	<g>
		<path fill="#61C2AC" d="M0,366.1v-20.4l72.9-34.1v22l-48.2,22l48.2,22.5v22L0,366.1z"/>
		<path fill="#61C2AC" d="M786.2,345.7v20.4l-72.9,34.1v-22l48.2-22.5l-48.2-22v-22.5L786.2,345.7z"/>
		<polygon fill="#61C2AC" points="171.4,424.8 218.6,287.5 243.7,287.5 196,424.8 		"/>
	</g>
</g>
<rect x="917.8" y="263.9" fill="#62C2AC" width="362.2" height="184"/>
<g enable-background="new    ">
	<path fill="#FFFFFF" d="M857.4,415.7V294.4h11.4v121.3H857.4z"/>
</g>
<g enable-background="new    ">
	<path d="M1000.8,308.8c20.6,0,33.7,8.9,33.7,22.9c0,9.7-6,17.4-15.7,20.2c11.5,2.2,18.9,11.3,18.9,23.2c0,15.6-13.6,25.4-35.3,25.4
		h-44.9v-91.7H1000.8z M980.6,345.5h18.9c6.8,0,11.1-3.7,11.1-9.6s-4.3-9.3-11.1-9.3h-18.9V345.5z M980.6,382.6h18.9
		c8.6,0,14-3.8,14-10.4c0-6.2-5.4-10-14-10h-18.9V382.6z"/>
	<path d="M1051.6,400.5v-97.2h22.7v97.2H1051.6z"/>
	<path d="M1164.3,365.1c0,21.8-15.5,36.2-38.5,36.2c-23.2,0-38.7-14.4-38.7-36.2s15.5-36,38.7-36
		C1148.9,329.1,1164.3,343.4,1164.3,365.1z M1110,365.4c0,11,6.4,18.3,15.9,18.3c9.3,0,15.7-7.3,15.7-18.3
		c0-10.9-6.4-18.3-15.7-18.3C1116.4,347,1110,354.5,1110,365.4z"/>
	<path d="M1244,394.1c0,20-15.5,32.8-38.3,32.8c-12.3,0-23.5-3.9-31.5-9.3l7.9-15.3c6.4,4.5,14.3,7.1,21.9,7.1
		c10.9,0,17.4-5.8,17.4-14.5v-7.5c-4.6,6-11.5,9.4-20.3,9.4c-17.8,0-30.4-13.6-30.4-34.2c0-20,12.2-33.4,29.9-33.4
		c9-0.1,16.1,3.3,20.8,9.4v-8.6h22.5V394.1z M1221.5,363.2c0-10.4-5.9-17.3-14.7-17.3c-8.9,0-14.9,7.1-14.9,17.3
		c0,10.1,6,17.2,14.9,17.2C1215.6,380.3,1221.5,373.3,1221.5,363.2z"/>
</g>
</svg>
