<?xml version="1.0" encoding="utf-8"?>
<!-- Generator: Adobe Illustrator 18.0.0, SVG Export Plug-In . SVG Version: 6.00 Build 0)  -->
<!DOCTYPE svg PUBLIC "-//W3C//DTD SVG 1.1//EN" "http://www.w3.org/Graphics/SVG/1.1/DTD/svg11.dtd">
<svg version="1.1" id="Layer_1" xmlns="http://www.w3.org/2000/svg" xmlns:xlink="http://www.w3.org/1999/xlink" x="0px" y="0px"
	 viewBox="0 -4.1 244.2 35.1" enable-background="new 0 -4.1 244.2 35.1" xml:space="preserve">
<g>
	<g>
		<g>
			<path fill="#FFFFFF" d="M60.1,21.2c-1.7,1.6-3.8,2.5-6.1,2.5c-2.3,0-4.3-0.7-5.8-2.2c-1.5-1.4-2.3-3.4-2.3-5.8
				c0-2.4,0.8-4.3,2.3-5.8c1.6-1.4,3.4-2.1,5.5-2.1s3.9,0.6,5.4,1.9c1.5,1.3,2.2,3,2.2,5.3v2.3H50.2c0.1,0.8,0.6,1.5,1.3,2.1
				c0.7,0.5,1.6,0.8,2.5,0.8c1.5,0,2.7-0.5,3.7-1.5L60.1,21.2z M56,12.1c-0.6-0.5-1.3-0.7-2.2-0.7c-0.8,0-1.6,0.3-2.3,0.8
				c-0.7,0.5-1.1,1.2-1.2,2.1H57C56.9,13.3,56.6,12.6,56,12.1z"/>
			<path fill="#FFFFFF" d="M71.8,19.8c1.4,0,2.7-0.7,3.9-2.1l2.5,2.9c-2,2.1-4.1,3.1-6.4,3.1s-4.3-0.7-5.8-2.2
				c-1.6-1.5-2.4-3.4-2.4-5.7s0.8-4.3,2.4-5.7c1.6-1.5,3.5-2.2,5.7-2.2c1.1,0,2.2,0.2,3.4,0.7c1.1,0.5,2.1,1.1,3,2l-2.2,2.9
				c-0.5-0.6-1.1-1-1.8-1.4c-0.7-0.3-1.4-0.5-2.1-0.5c-1.1,0-2.1,0.4-2.9,1.1c-0.8,0.7-1.2,1.8-1.2,3.1c0,1.3,0.4,2.3,1.2,3
				C69.8,19.5,70.7,19.8,71.8,19.8z"/>
			<path fill="#FFFFFF" d="M96.2,15.7c0,2.2-0.8,4.1-2.3,5.6s-3.5,2.3-5.8,2.3c-2.3,0-4.3-0.8-5.8-2.3c-1.5-1.5-2.3-3.4-2.3-5.6
				s0.8-4.1,2.3-5.6c1.5-1.5,3.5-2.3,5.8-2.3c2.3,0,4.3,0.8,5.8,2.3S96.2,13.5,96.2,15.7z M84.2,15.7c0,1.3,0.4,2.3,1.1,3.1
				c0.7,0.8,1.6,1.2,2.7,1.2s2-0.4,2.7-1.2c0.7-0.8,1.1-1.8,1.1-3.1s-0.4-2.3-1.1-3.1c-0.7-0.8-1.6-1.2-2.7-1.2s-2,0.4-2.7,1.2
				C84.6,13.4,84.2,14.5,84.2,15.7z"/>
			<path fill="#FFFFFF" d="M105.5,23.6c-1.8,0-3.4-0.8-4.9-2.3c-1.4-1.5-2.1-3.5-2.1-5.7s0.7-4.2,2.1-5.6c1.4-1.5,3-2.2,4.9-2.2
				c1.9,0,3.4,0.7,4.6,2V2.2h4.3v21.2H110v-2C108.8,22.9,107.3,23.6,105.5,23.6z M102.8,15.7c0,1.2,0.4,2.3,1.1,3
				c0.7,0.8,1.6,1.2,2.6,1.2s1.8-0.4,2.5-1.2c0.7-0.8,1-1.8,1-3.1s-0.3-2.3-1-3.1c-0.7-0.8-1.5-1.2-2.6-1.2c-1,0-1.9,0.4-2.6,1.3
				C103.2,13.5,102.8,14.5,102.8,15.7z"/>
			<path fill="#FFFFFF" d="M131.7,21.2c-1.7,1.6-3.8,2.5-6.1,2.5c-2.3,0-4.3-0.7-5.8-2.2c-1.5-1.4-2.3-3.4-2.3-5.8
				c0-2.4,0.8-4.3,2.3-5.8c1.6-1.4,3.4-2.1,5.5-2.1s3.9,0.6,5.4,1.9c1.5,1.3,2.2,3,2.2,5.3v2.3h-11.2c0.1,0.8,0.6,1.5,1.3,2.1
				c0.7,0.5,1.6,0.8,2.5,0.8c1.5,0,2.7-0.5,3.7-1.5L131.7,21.2z M127.6,12.1c-0.6-0.5-1.3-0.7-2.2-0.7c-0.8,0-1.6,0.3-2.3,0.8
				s-1.1,1.2-1.2,2.1h6.7C128.5,13.3,128.2,12.6,127.6,12.1z"/>
		</g>
		<g>
			<polygon fill="#FFFFFF" points="36,13.5 32.9,3.4 28.2,3.4 24.7,14.9 20.8,3.4 15.9,3.4 22.9,23.4 26.2,23.4 30.6,9.5 33.8,19.8 
							"/>
		</g>
	</g>
	<g>
		<path fill="#61C2AC" d="M0,15.4v-3.9l13.9-6.5v4.2l-9.2,4.2l9.2,4.3v4.2L0,15.4z"/>
		<path fill="#61C2AC" d="M150,11.5v3.9l-13.9,6.5v-4.2l9.2-4.3l-9.2-4.2V4.9L150,11.5z"/>
		<polygon fill="#61C2AC" points="32.7,26.6 41.7,0.4 46.5,0.4 37.4,26.6 		"/>
	</g>
</g>
<rect x="175.1" y="-4.1" fill="#62C2AC" width="69.1" height="35.1"/>
<text transform="matrix(1 0 0 1 161.3096 21.9609)"><tspan x="0" y="0" fill="#FFFFFF" font-family="'Montserrat-Regular'" font-size="25">|  </tspan><tspan x="19.6" y="0" font-family="'Montserrat-Bold'" font-size="25">Blog</tspan></text>
</svg>
