<?xml version="1.0" encoding="utf-8"?>
<!-- Generator: Adobe Illustrator 18.0.0, SVG Export Plug-In . SVG Version: 6.00 Build 0)  -->
<!DOCTYPE svg PUBLIC "-//W3C//DTD SVG 1.1//EN" "http://www.w3.org/Graphics/SVG/1.1/DTD/svg11.dtd">
<svg version="1.1" id="Capa_1" xmlns="http://www.w3.org/2000/svg" xmlns:xlink="http://www.w3.org/1999/xlink" x="0px" y="0px"
	 viewBox="1148 386.2 24.2 23.6" enable-background="new 1148 386.2 24.2 23.6" xml:space="preserve">
<g>
	<g>
		<path d="M640,359.4C640,359.4,640,359.4,640,359.4c0.3,0.1,0.5,0.2,0.5,0.5c0.1,0.3,0,0.5-0.3,0.7c0,0-0.1,0.1-0.1,0.1
			c0,0,0,0,0,0c0,0,0,0,0,0c0-0.1,0-0.1,0-0.2c0,0,0,0,0,0c0,0,0,0,0-0.1c0,0,0,0,0,0c0,0,0.1,0,0.1,0c0,0,0.1-0.1,0.1-0.1
			c0-0.1,0-0.1,0-0.2c0,0,0-0.1,0-0.1c0,0,0,0,0,0c0-0.1,0-0.1,0-0.1c0,0,0,0,0,0c0,0,0,0-0.1,0c0,0,0,0-0.1,0c0,0,0,0,0,0
			c-0.1,0-0.2,0-0.3,0c0,0,0,0,0,0c0,0-0.1,0-0.1-0.1c0,0,0,0,0,0c0,0,0,0,0,0c0,0,0,0.1,0,0.1c0,0,0,0,0,0c0,0.1-0.1,0.1-0.1,0.2
			c0,0,0,0.1,0,0.1c0,0.1,0.1,0.1,0.2,0.1c0,0,0.1,0,0.1,0c0,0,0,0,0,0c0,0,0,0,0,0c0,0,0,0,0,0.1c0,0,0,0,0,0c0,0,0,0-0.1,0
			c0,0-0.1,0-0.1-0.1c0,0,0,0,0,0c0,0,0,0-0.1,0c0,0,0,0,0,0c0,0,0,0,0,0c0,0,0,0,0,0c0,0,0.1,0,0.1,0.1c0,0.1,0.1,0.1,0.1,0.1
			c0,0,0,0,0.1,0c0,0,0,0,0,0c0,0,0,0,0,0c0,0,0,0.1,0,0.1c0,0,0,0,0,0c-0.2-0.1-0.4-0.2-0.4-0.5c0,0,0,0,0-0.1c0,0,0,0,0,0
			c0,0,0,0,0-0.1c0,0,0,0,0,0c0,0,0-0.1,0-0.1c0.1-0.2,0.3-0.4,0.5-0.4C639.9,359.4,639.9,359.4,640,359.4
			C640,359.4,640,359.4,640,359.4z"/>
	</g>
</g>
<g>
	<g>
		<path d="M1160.7,386.2c0.4,0.1,0.8,0.1,1.2,0.2c4.7,0.8,8.5,4.2,9.8,8.8c1.4,5-0.7,10.5-5.1,13.3c-0.8,0.5-1.7,1-2.6,1.3
			c-0.1,0-0.1,0-0.2,0.1c-0.5,0.1-0.8-0.2-0.8-0.7c0-1,0-2.1,0-3.1c0-0.3,0-0.6-0.1-1c-0.1-0.5-0.3-1-0.7-1.4
			c0.3-0.1,0.6-0.1,0.9-0.1c0.8-0.1,1.6-0.4,2.2-0.8c1-0.6,1.6-1.4,2-2.4c0.4-1.2,0.5-2.4,0.3-3.6c-0.1-0.8-0.5-1.5-1-2.1
			c-0.1-0.1-0.1-0.2-0.1-0.3c0.3-1,0.2-2-0.1-2.9c0-0.1-0.1-0.1-0.2-0.1c-0.5,0-1,0.1-1.5,0.3c-0.5,0.3-1,0.6-1.5,0.8
			c-0.1,0-0.2,0.1-0.3,0.1c-1.9-0.5-3.8-0.5-5.7,0c-0.1,0-0.2,0-0.4-0.1c-0.7-0.5-1.5-0.9-2.3-1.1c-0.2,0-0.5,0-0.7-0.1
			c-0.1,0-0.2,0.1-0.2,0.2c-0.3,1-0.4,1.9-0.1,2.9c0,0.1,0,0.1,0,0.2c-1,1.2-1.3,2.6-1.1,4c0.1,0.8,0.2,1.6,0.6,2.3
			c0.6,1.3,1.6,2,3,2.4c0.6,0.2,1.2,0.3,1.7,0.4c0,0,0.1,0,0.2,0c0,0,0,0.1-0.1,0.1c-0.4,0.4-0.5,0.8-0.6,1.3c0,0.1-0.1,0.2-0.2,0.3
			c-0.4,0.2-0.8,0.2-1.3,0.2c-0.8,0-1.5-0.4-1.9-1.1c-0.2-0.2-0.3-0.5-0.5-0.7c-0.3-0.4-0.8-0.7-1.3-0.8c-0.2,0-0.3,0-0.5,0
			c-0.3,0.1-0.3,0.2-0.1,0.4c0.1,0.1,0.2,0.2,0.3,0.2c0.6,0.4,1,0.9,1.3,1.6c0.5,1.2,1.4,1.7,2.6,1.8c0.5,0,0.9-0.1,1.4-0.1
			c0.1,0,0.1,0,0.2,0c0,0.1,0,0.1,0,0.2c0,0.7,0,1.3,0,2c0,0.6-0.4,0.9-0.9,0.7c-4.4-1.6-7-4.7-8-9.3c-0.1-0.4-0.1-0.9-0.2-1.3
			c0-0.1,0-0.1,0-0.2c0-0.5,0-0.9,0-1.4c0-0.1,0-0.1,0-0.2c0.1-0.7,0.2-1.4,0.3-2.1c1.1-4.6,5.1-8.2,9.8-9c0.4-0.1,0.8-0.1,1.3-0.2
			C1159.8,386.2,1160.3,386.2,1160.7,386.2z"/>
	</g>
</g>
</svg>
