<?xml version="1.0" encoding="utf-8"?>
<!-- Generator: Adobe Illustrator 18.0.0, SVG Export Plug-In . SVG Version: 6.00 Build 0)  -->
<!DOCTYPE svg PUBLIC "-//W3C//DTD SVG 1.1//EN" "http://www.w3.org/Graphics/SVG/1.1/DTD/svg11.dtd">
<svg version="1.1" id="Capa_1" xmlns="http://www.w3.org/2000/svg" xmlns:xlink="http://www.w3.org/1999/xlink" x="0px" y="0px"
	 viewBox="280 0 717.2 720" enable-background="new 280 0 717.2 720" xml:space="preserve">
<path d="M638.6,0C440.9,0,280,160.9,280,358.6s160.9,358.6,358.6,358.6s358.6-160.9,358.6-358.6C1000,160.9,839.1,0,638.6,0z
	 M796.7,293.6c0,2.8,0,5.6,0,11.3c0,107.3-81.9,231.5-231.5,231.5c-45.2,0-87.5-14.1-124.2-36.7c5.6,0,14.1,0,19.8,0
	c36.7,0,73.4-14.1,101.6-33.9c-36.7,0-64.9-25.4-76.2-56.5c5.6,0,11.3,2.8,14.1,2.8c8.5,0,14.1,0,22.6-2.8
	c-36.7-8.5-64.9-39.5-64.9-79.1l0,0c11.3,5.6,22.6,8.5,36.7,11.3c-22.6-14.1-36.7-39.5-36.7-67.8c0-14.1,2.8-28.2,11.3-39.5
	c39.5,48,98.8,81.9,166.6,84.7c0-5.6-2.8-11.3-2.8-19.8c0-45.2,36.7-81.9,81.9-81.9c22.6,0,45.2,8.5,59.3,25.4
	c19.8-2.8,36.7-11.3,50.8-19.8c-5.6,19.8-19.8,33.9-36.7,45.2c16.9-2.8,31.1-5.6,45.2-14.1C824.9,268.2,813.6,282.4,796.7,293.6z"/>
</svg>
